<?xml version="1.0" encoding="iso-8859-1"?>
<!-- Uploaded to: SVG Repo, www.svgrepo.com, Generator: SVG Repo Mixer Tools -->
<svg fill="#000000" version="1.1" id="Layer_1" xmlns="http://www.w3.org/2000/svg" xmlns:xlink="http://www.w3.org/1999/xlink" 
	 viewBox="0 0 511.999 511.999" xml:space="preserve">
<g>
	<g>
		<g>
			<path d="M485.925,474.943c-34.482-47.308-106.849-84.954-183.964-95.782l-7.535-45.212c2.367-0.427,4.538-1.65,6.118-3.514
				c1.985-2.344,2.839-5.442,2.333-8.471l-8.451-50.708c2.367-0.427,4.538-1.65,6.118-3.514c1.985-2.344,2.839-5.442,2.333-8.471
				l-7.187-43.123l165.917,29.011c0.601,0.106,1.203,0.156,1.8,0.156c3.149,0,6.17-1.425,8.172-3.939
				c2.381-2.99,2.94-7.044,1.456-10.567c-18.01-42.749-55.972-73.048-101.571-81.055c-0.001,0-0.002,0-0.003,0l77.522-41.191
				c3.378-1.796,5.507-5.293,5.545-9.12c0.04-3.826-2.016-7.368-5.356-9.233c-20.217-11.283-42.484-17.073-65.044-17.189
				l40.421-32.865c2.972-2.417,4.383-6.263,3.679-10.029c-0.704-3.765-3.412-6.842-7.054-8.021
				c-44.223-14.306-91.992-5.458-127.761,23.659C277.355,58.768,264.608,75.361,256,94.109
				c-8.606-18.748-21.349-35.336-37.395-48.327c-35.789-29.131-83.556-37.98-127.781-23.675c-3.644,1.179-6.35,4.256-7.054,8.02
				c-0.704,3.765,0.706,7.612,3.677,10.029l40.718,33.121c-23.046-0.032-45.987,5.734-66.274,17.044
				c-3.343,1.863-5.399,5.405-5.36,9.232s2.165,7.326,5.545,9.121l79.006,41.99c-43.489,9.19-79.494,38.858-96.899,80.143
				c-1.485,3.523-0.928,7.577,1.454,10.567c2.002,2.515,5.024,3.94,8.173,3.94c0.598,0,1.2-0.051,1.8-0.156l160.582-28.069
				l-7.069,42.171c-0.508,3.03,0.344,6.131,2.329,8.477c1.58,1.866,3.752,3.091,6.121,3.518l-8.451,50.708
				c-0.505,3.03,0.348,6.127,2.333,8.471c1.58,1.864,3.751,3.087,6.118,3.514l-7.378,44.265
				c-77.226,7.98-139.017,36.195-171.581,78.331c-12.052-1.16-24.746-1.731-38.616-1.731v20.898c15.403,0,29.231,0.728,42.231,2.222
				c16.234,1.938,28.113,4.848,40.691,7.93c21.568,5.283,43.869,10.746,87.711,10.746c43.944,0,66.265-5.464,87.852-10.749
				c21.321-5.219,41.459-10.149,82.882-10.149c41.379,0,61.485,4.928,82.772,10.143c15.405,3.775,31.333,7.679,55.274,9.58
				c10.035,0.791,20.694,1.176,32.586,1.176v-20.898C502.574,475.712,493.997,475.457,485.925,474.943z M444.262,220.91
				l-152.518-26.667c-0.243-0.579-0.535-1.128-0.872-1.645l42.926-22.833c11.746-1.486,23.21-1.307,34.078,0.576
				C399.665,175.922,427.079,194.336,444.262,220.91z M420.349,100.111L325.7,150.402l-0.004,0.003l-53.495,28.453
				c1.997-7.447,4.766-14.699,8.29-21.697l73.045-59.267C375.87,91.914,398.953,92.734,420.349,100.111z M238.729,334.13h34.542
				l7.12,42.721c-8.192-0.61-16.356-0.925-24.391-0.925c-8.034,0-16.181,0.237-24.347,0.662L238.729,334.13z M231.763,313.232
				l6.966-41.796h34.542l6.965,41.796H231.763z M306.586,61.99c24.956-20.311,56.817-28.962,88.221-24.582L342.1,80.261
				l-74.036,60.071c-0.319-3.855-0.81-7.728-1.443-11.604C271.893,102.291,286.018,78.644,306.586,61.99z M258.613,209.639
				l15.256,2.684l6.369,38.215h-48.462l6.248-37.276L258.613,209.639z M117.187,37.407c31.408-4.381,63.275,4.273,88.248,24.6
				c20.547,16.634,34.671,40.281,39.944,66.721c-0.631,3.863-1.12,7.722-1.439,11.563L170.63,80.879L117.187,37.407z M90.791,100.27
				c21.882-7.423,45.863-8.135,68.357-1.794l70.479,57.117c3.825,7.427,6.844,15.223,9.031,23.303l-55.49-29.531l-0.004-0.002
				L90.791,100.27z M72.962,220.91c17.188-26.575,44.593-44.988,76.329-50.56c8.593-1.46,17.355-1.942,26.076-1.462l45.457,24.19
				c-0.387,0.67-0.694,1.39-0.926,2.147L72.962,220.91z M429.115,465.559c-21.556-5.282-43.846-10.745-87.747-10.745
				c-43.944,0-66.265,5.464-87.852,10.749c-21.321,5.219-41.459,10.149-82.882,10.149c-41.319,0-61.438-4.929-82.739-10.146
				c-7.772-1.904-15.711-3.847-24.752-5.548c32.014-33.798,88.067-56.029,157.216-61.767c11.908-0.947,23.899-1.426,35.641-1.426
				c11.548,0,23.386,0.681,35.18,2.025c38.834,4.443,76.972,16.106,110.296,33.726c21.318,11.273,39.768,24.613,53.853,38.769
				C445.857,469.66,437.615,467.641,429.115,465.559z"/>
			<rect x="114.939" y="438.617" width="20.898" height="20.898"/>
			<rect x="208.98" y="438.617" width="20.898" height="20.898"/>
			<rect x="156.735" y="443.841" width="20.898" height="20.898"/>
			<rect x="182.857" y="417.719" width="20.898" height="20.898"/>
			<rect x="240.327" y="412.494" width="20.898" height="20.898"/>
			<rect x="276.898" y="422.943" width="20.898" height="20.898"/>
			<rect x="313.469" y="417.719" width="20.898" height="20.898"/>
			<rect x="350.041" y="428.168" width="20.898" height="20.898"/>
		</g>
	</g>
</g>
</svg>